<mxfile host="app.diagrams.net" modified="2021-12-29T11:35:18.990Z" agent="5.0 (Macintosh; Intel Mac OS X 10_15_7) AppleWebKit/537.36 (KHTML, like Gecko) Chrome/96.0.4664.110 Safari/537.36" etag="0WIzqRQVK505q-zKxeo_" version="16.1.0" type="github">
  <diagram name="Page-1" id="7a6c530e-6e37-e111-ec74-82921da8cc10">
    <mxGraphModel dx="1415" dy="769" grid="1" gridSize="8" guides="1" tooltips="1" connect="1" arrows="1" fold="1" page="1" pageScale="1.5" pageWidth="1169" pageHeight="826" background="#FFFFFF" math="0" shadow="0">
      <root>
        <mxCell id="0" style=";html=1;" />
        <mxCell id="1" style=";html=1;" parent="0" />
        <mxCell id="K_LD3TBMWtCk_dUfeqcV-1" value="l" style="rounded=1;whiteSpace=wrap;html=1;fillColor=#d5e8d4;strokeColor=#82b366;" parent="1" vertex="1">
          <mxGeometry x="359" y="978" width="879" height="182" as="geometry" />
        </mxCell>
        <mxCell id="K_LD3TBMWtCk_dUfeqcV-34" value="" style="rounded=1;whiteSpace=wrap;html=1;fontSize=13;strokeColor=default;" parent="1" vertex="1">
          <mxGeometry x="890" y="864" width="120" height="60" as="geometry" />
        </mxCell>
        <mxCell id="K_LD3TBMWtCk_dUfeqcV-35" value="" style="rounded=1;whiteSpace=wrap;html=1;fillColor=#fff2cc;strokeColor=#d6b656;" parent="1" vertex="1">
          <mxGeometry x="361" y="832" width="870" height="127" as="geometry" />
        </mxCell>
        <mxCell id="K_LD3TBMWtCk_dUfeqcV-36" value="NetworkServer" style="rounded=1;whiteSpace=wrap;html=1;fontSize=13;strokeColor=default;" parent="1" vertex="1">
          <mxGeometry x="390" y="864" width="120" height="60" as="geometry" />
        </mxCell>
        <mxCell id="K_LD3TBMWtCk_dUfeqcV-39" value="WebServer" style="rounded=1;whiteSpace=wrap;html=1;fontSize=13;strokeColor=default;" parent="1" vertex="1">
          <mxGeometry x="540" y="864" width="120" height="60" as="geometry" />
        </mxCell>
        <mxCell id="K_LD3TBMWtCk_dUfeqcV-40" value="统计与埋点" style="rounded=1;whiteSpace=wrap;html=1;fontSize=13;strokeColor=default;" parent="1" vertex="1">
          <mxGeometry x="680" y="864" width="120" height="60" as="geometry" />
        </mxCell>
        <mxCell id="K_LD3TBMWtCk_dUfeqcV-41" value="数据持久化" style="rounded=1;whiteSpace=wrap;html=1;fontSize=13;strokeColor=default;" parent="1" vertex="1">
          <mxGeometry x="823" y="864" width="120" height="60" as="geometry" />
        </mxCell>
        <mxCell id="K_LD3TBMWtCk_dUfeqcV-42" value="基础服务" style="text;html=1;strokeColor=none;fillColor=none;align=center;verticalAlign=middle;whiteSpace=wrap;rounded=0;fontSize=13;" parent="1" vertex="1">
          <mxGeometry x="280" y="879" width="60" height="30" as="geometry" />
        </mxCell>
        <mxCell id="K_LD3TBMWtCk_dUfeqcV-43" value="" style="rounded=1;whiteSpace=wrap;html=1;fillColor=#cce5ff;strokeColor=#36393d;" parent="1" vertex="1">
          <mxGeometry x="360" y="672" width="870" height="130" as="geometry" />
        </mxCell>
        <mxCell id="K_LD3TBMWtCk_dUfeqcV-44" value="环境配置" style="text;html=1;strokeColor=none;fillColor=none;align=center;verticalAlign=middle;whiteSpace=wrap;rounded=0;fontSize=13;" parent="1" vertex="1">
          <mxGeometry x="280" y="720" width="60" height="30" as="geometry" />
        </mxCell>
        <mxCell id="K_LD3TBMWtCk_dUfeqcV-45" value="HLAccount" style="rounded=1;whiteSpace=wrap;html=1;fontSize=13;strokeColor=#6c8ebf;fillColor=#dae8fc;" parent="1" vertex="1">
          <mxGeometry x="390" y="707" width="120" height="60" as="geometry" />
        </mxCell>
        <mxCell id="K_LD3TBMWtCk_dUfeqcV-47" value="Localization" style="rounded=1;whiteSpace=wrap;html=1;fontSize=13;strokeColor=#6c8ebf;fillColor=#dae8fc;" parent="1" vertex="1">
          <mxGeometry x="544" y="707" width="120" height="60" as="geometry" />
        </mxCell>
        <mxCell id="K_LD3TBMWtCk_dUfeqcV-48" value="Navigator" style="rounded=1;whiteSpace=wrap;html=1;fontSize=13;strokeColor=#6c8ebf;fillColor=#dae8fc;" parent="1" vertex="1">
          <mxGeometry x="696" y="707" width="120" height="60" as="geometry" />
        </mxCell>
        <mxCell id="K_LD3TBMWtCk_dUfeqcV-49" value="App Config" style="rounded=1;whiteSpace=wrap;html=1;fontSize=13;strokeColor=#6c8ebf;fillColor=#dae8fc;" parent="1" vertex="1">
          <mxGeometry x="848" y="707" width="120" height="60" as="geometry" />
        </mxCell>
        <mxCell id="Ix5k6d0BuqMqthUMCjz2-28" value="" style="rounded=1;whiteSpace=wrap;html=1;" vertex="1" parent="1">
          <mxGeometry x="361" y="509" width="870" height="130" as="geometry" />
        </mxCell>
        <mxCell id="Ix5k6d0BuqMqthUMCjz2-29" value="业务能力" style="text;html=1;strokeColor=none;fillColor=none;align=center;verticalAlign=middle;whiteSpace=wrap;rounded=0;fontSize=13;" vertex="1" parent="1">
          <mxGeometry x="281" y="557" width="60" height="30" as="geometry" />
        </mxCell>
        <mxCell id="Ix5k6d0BuqMqthUMCjz2-31" value="Message" style="rounded=1;whiteSpace=wrap;html=1;fontSize=13;strokeColor=#6c8ebf;fillColor=#dae8fc;" vertex="1" parent="1">
          <mxGeometry x="386" y="544" width="120" height="60" as="geometry" />
        </mxCell>
        <mxCell id="Ix5k6d0BuqMqthUMCjz2-32" value="AudioRoom" style="rounded=1;whiteSpace=wrap;html=1;fontSize=13;strokeColor=#6c8ebf;fillColor=#dae8fc;" vertex="1" parent="1">
          <mxGeometry x="538" y="544" width="120" height="60" as="geometry" />
        </mxCell>
        <mxCell id="Ix5k6d0BuqMqthUMCjz2-33" value="GiftModule" style="rounded=1;whiteSpace=wrap;html=1;fontSize=13;strokeColor=#6c8ebf;fillColor=#dae8fc;" vertex="1" parent="1">
          <mxGeometry x="690" y="544" width="120" height="60" as="geometry" />
        </mxCell>
        <mxCell id="Ix5k6d0BuqMqthUMCjz2-43" value="" style="group" vertex="1" connectable="0" parent="1">
          <mxGeometry x="752" y="1002.25" width="464" height="133.5" as="geometry" />
        </mxCell>
        <mxCell id="K_LD3TBMWtCk_dUfeqcV-15" value="" style="rounded=1;whiteSpace=wrap;html=1;fontSize=16;strokeColor=#d79b00;fillColor=#ffe6cc;" parent="Ix5k6d0BuqMqthUMCjz2-43" vertex="1">
          <mxGeometry width="464" height="133.5" as="geometry" />
        </mxCell>
        <mxCell id="K_LD3TBMWtCk_dUfeqcV-16" value="GACore" style="text;html=1;strokeColor=none;fillColor=none;align=center;verticalAlign=middle;whiteSpace=wrap;rounded=0;fontSize=13;" parent="Ix5k6d0BuqMqthUMCjz2-43" vertex="1">
          <mxGeometry x="5" y="1.5" width="60" height="30" as="geometry" />
        </mxCell>
        <mxCell id="K_LD3TBMWtCk_dUfeqcV-18" value="GAUI" style="rounded=1;whiteSpace=wrap;html=1;fontSize=13;strokeColor=default;" parent="Ix5k6d0BuqMqthUMCjz2-43" vertex="1">
          <mxGeometry x="372" y="11.5" width="64" height="55" as="geometry" />
        </mxCell>
        <mxCell id="EU10I_Jx_XXT4axmKY_v-11" value="Extension" style="rounded=1;whiteSpace=wrap;html=1;" parent="Ix5k6d0BuqMqthUMCjz2-43" vertex="1">
          <mxGeometry x="72" y="81.75" width="368" height="36" as="geometry" />
        </mxCell>
        <mxCell id="Ix5k6d0BuqMqthUMCjz2-42" value="" style="group" vertex="1" connectable="0" parent="Ix5k6d0BuqMqthUMCjz2-43">
          <mxGeometry x="74" y="6.5" width="282" height="55" as="geometry" />
        </mxCell>
        <mxCell id="K_LD3TBMWtCk_dUfeqcV-17" value="" style="rounded=1;whiteSpace=wrap;html=1;fontSize=13;" parent="Ix5k6d0BuqMqthUMCjz2-42" vertex="1">
          <mxGeometry y="5" width="282" height="55" as="geometry" />
        </mxCell>
        <mxCell id="K_LD3TBMWtCk_dUfeqcV-22" value="GAFoundation" style="text;html=1;strokeColor=none;fillColor=none;align=center;verticalAlign=middle;whiteSpace=wrap;rounded=0;fontSize=13;" parent="Ix5k6d0BuqMqthUMCjz2-42" vertex="1">
          <mxGeometry x="-12" y="6" width="154.25641025641028" height="16" as="geometry" />
        </mxCell>
        <mxCell id="K_LD3TBMWtCk_dUfeqcV-24" value="Error" style="rounded=1;whiteSpace=wrap;html=1;fontSize=13;strokeColor=#b85450;fillColor=#f8cecc;" parent="Ix5k6d0BuqMqthUMCjz2-42" vertex="1">
          <mxGeometry x="98" y="27" width="72" height="20" as="geometry" />
        </mxCell>
        <mxCell id="K_LD3TBMWtCk_dUfeqcV-25" value="Logger" style="rounded=1;whiteSpace=wrap;html=1;fontSize=13;strokeColor=#b85450;fillColor=#f8cecc;" parent="Ix5k6d0BuqMqthUMCjz2-42" vertex="1">
          <mxGeometry x="16.409999999999968" y="27" width="72" height="20" as="geometry" />
        </mxCell>
        <mxCell id="K_LD3TBMWtCk_dUfeqcV-26" value="Securer" style="rounded=1;whiteSpace=wrap;html=1;fontSize=13;strokeColor=#b85450;fillColor=#f8cecc;" parent="Ix5k6d0BuqMqthUMCjz2-42" vertex="1">
          <mxGeometry x="178" y="27" width="72" height="20" as="geometry" />
        </mxCell>
        <mxCell id="Ix5k6d0BuqMqthUMCjz2-44" value="" style="group" vertex="1" connectable="0" parent="1">
          <mxGeometry x="384" y="1000" width="344" height="133.5" as="geometry" />
        </mxCell>
        <mxCell id="Ix5k6d0BuqMqthUMCjz2-38" value="" style="rounded=1;whiteSpace=wrap;html=1;fontSize=16;strokeColor=#d79b00;fillColor=#ffe6cc;" vertex="1" parent="Ix5k6d0BuqMqthUMCjz2-44">
          <mxGeometry width="344" height="133.5" as="geometry" />
        </mxCell>
        <mxCell id="EU10I_Jx_XXT4axmKY_v-6" value="开源库" style="rounded=1;whiteSpace=wrap;html=1;fontSize=13;strokeColor=default;" parent="Ix5k6d0BuqMqthUMCjz2-44" vertex="1">
          <mxGeometry x="24" y="15" width="296" height="41" as="geometry" />
        </mxCell>
        <mxCell id="Ix5k6d0BuqMqthUMCjz2-41" value="GPBModels" style="rounded=1;whiteSpace=wrap;html=1;fontSize=13;strokeColor=default;" vertex="1" parent="Ix5k6d0BuqMqthUMCjz2-44">
          <mxGeometry x="24" y="70.75" width="296" height="41" as="geometry" />
        </mxCell>
      </root>
    </mxGraphModel>
  </diagram>
</mxfile>
